<?xml version="1.0" encoding="UTF-8" standalone="no"?>
<!-- Created with Inkscape (http://www.inkscape.org/) -->

<svg
   width="504.06335mm"
   height="131.14058mm"
   viewBox="0 0 504.06337 131.14058"
   version="1.1"
   id="svg1"
   inkscape:version="1.4 (86a8ad7, 2024-10-11)"
   sodipodi:docname="Stradivarius_logo_2017.svg"
   xmlns:inkscape="http://www.inkscape.org/namespaces/inkscape"
   xmlns:sodipodi="http://sodipodi.sourceforge.net/DTD/sodipodi-0.dtd"
   xmlns="http://www.w3.org/2000/svg"
   xmlns:svg="http://www.w3.org/2000/svg">
  <sodipodi:namedview
     id="namedview1"
     pagecolor="#ffffff"
     bordercolor="#000000"
     borderopacity="0.25"
     inkscape:showpageshadow="2"
     inkscape:pageopacity="0.0"
     inkscape:pagecheckerboard="0"
     inkscape:deskcolor="#d1d1d1"
     inkscape:document-units="mm"
     inkscape:zoom="0.98646753"
     inkscape:cx="953.40188"
     inkscape:cy="251.90895"
     inkscape:window-width="1920"
     inkscape:window-height="1001"
     inkscape:window-x="-9"
     inkscape:window-y="-9"
     inkscape:window-maximized="1"
     inkscape:current-layer="layer1" />
  <defs
     id="defs1" />
  <g
     inkscape:label="Layer 1"
     inkscape:groupmode="layer"
     id="layer1"
     transform="translate(-4.485042,-77.454309)">
    <path
       style="fill:#1d1d1b;stroke-width:1.21505"
       inkscape:connector-curvature="0"
       class="cls-1"
       d="m 62.252392,164.08879 -0.5431,-14.6058 h 1.7119 l 5.58425,13.21775 a 9.444868,10.003965 0 0 0 2.75085,1.95075 8.8309515,9.3537075 0 0 0 3.7425,0.81285 7.792016,8.2532715 0 0 0 6.03295,-2.501 9.185134,9.728856 0 0 0 2.1605,-6.86525 6.528765,6.915241 0 0 0 -1.4876,-4.6268 11.558157,12.242353 0 0 0 -4.81685,-3.1888 l -5.90305,-2.38845 q -9.19695,-3.6264 -9.19695,-13.08015 a 11.947758,12.655016 0 0 1 2.36125,-7.67805 15.430553,16.343978 0 0 1 6.52875,-5.2896 23.61217,25.009913 0 0 1 9.44485,-1.91325 27.496372,29.124044 0 0 1 11.71165,3.0512 l -0.1655,13.04265 h -1.5348 l -5.053,-11.6421 a 9.444868,10.003965 0 0 0 -6.0329,-2.38845 6.4697345,6.852716 0 0 0 -5.13565,2.2884 9.161522,9.703846 0 0 0 -1.88895,6.65265 4.9113314,5.202062 0 0 0 1.5702,4.10165 14.320781,15.168512 0 0 0 5.00575,3.1512 l 4.72245,2.0008 a 22.13641,23.446794 0 0 1 8.02815,5.2021 10.200458,10.804283 0 0 1 2.43205,7.5905 13.081142,13.855492 0 0 1 -2.60915,8.49085 17.13063,18.144692 0 0 1 -7.08365,5.7773 23.753843,25.159973 0 0 1 -9.64555,2.0508 32.277837,34.188551 0 0 1 -12.7978,-3.15125"
       id="path8" />
    <path
       style="fill:#1d1d1b;stroke-width:1.21505"
       inkscape:connector-curvature="0"
       class="cls-1"
       d="m 104.44734,163.80114 q -2.56195,-3.15125 -2.4793,-9.1661 l 0.2715,-30.6997 h -6.670448 v -2.41345 l 6.670448,-2.20085 9.2796,-11.8297 h 1.88895 v 12.1173 h 12.70335 v 4.4893 h -12.7033 v 32.26275 a 6.4343165,6.8152015 0 0 0 2.62095,4.2517 8.8545635,9.3787175 0 0 0 4.8641,1.2505 17.390363,18.419801 0 0 0 5.48985,-1.0504 l 0.54305,1.15045 a 24.792779,26.260409 0 0 1 -14.1673,5.00195 q -5.76135,0 -8.33505,-3.15125"
       id="path10" />
    <path
       style="fill:#1d1d1b;stroke-width:1.21505"
       inkscape:connector-curvature="0"
       class="cls-1"
       d="m 133.98614,162.85079 v -34.93885 l -5.5016,-3.62645 v -0.85035 l 15.4069,-5.25205 h 0.4485 l 0.4485,12.50495 h 0.354 l 1.1806,-2.501 a 27.638045,29.274103 0 0 1 5.1829,-7.8781 7.9809135,8.4533505 0 0 1 5.4544,-2.15085 6.3044495,6.677647 0 0 1 4.2738,1.6256 5.2300955,5.5396955 0 0 1 1.7591,4.38925 q 0,5.63975 -6.12735,7.0653 l -5.57245,-4.8019 a 8.2642595,8.7534695 0 0 0 -3.15225,2.62605 13.494355,14.293166 0 0 0 -2.7154,4.87695 v 28.91145 l 7.47325,1.42555 v 1.4381 h -24.41495 v -1.4381 z"
       id="path12" />
    <path
       style="fill:#1d1d1b;stroke-width:1.21505"
       inkscape:connector-curvature="0"
       class="cls-1"
       d="m 187.82189,156.83589 v -15.3936 l -5.90305,2.10085 a 10.625477,11.254461 0 0 0 -5.3127,3.43885 9.315001,9.8664105 0 0 0 0.0825,11.25445 5.9030425,6.252478 0 0 0 4.72245,2.1884 7.9809135,8.4533505 0 0 0 6.3989,-3.62645 m -20.62525,7.15285 a 10.200458,10.804283 0 0 1 -3.3293,-8.4909 10.01156,10.604203 0 0 1 3.6481,-8.69095 q 3.64805,-3.15125 11.58175,-5.25205 l 8.7365,-2.2884 v -6.35255 q 0,-5.91485 -2.07785,-9.1161 a 6.540571,6.927746 0 0 0 -5.67875,-3.20125 7.7211795,8.1782415 0 0 0 -4.59255,1.42555 l -0.354,12.21735 a 14.497873,15.356087 0 0 1 -4.95855,0.86285 5.6315025,5.9648645 0 0 1 -3.7425,-1.2505 4.1085176,4.3517249 0 0 1 -1.39315,-3.5389 q 0,-2.6636 2.79805,-5.4897 a 22.053767,23.359259 0 0 1 7.3552,-4.6018 27.000517,28.598836 0 0 1 9.7282,-1.86325 q 7.21355,0 10.71995,3.48885 3.5064,3.4889 3.5418,11.0294 v 25.89775 a 3.3057038,3.5013878 0 0 0 0.63755,2.501 3.6716925,3.8890415 0 0 0 2.43205,0.62525 h 3.8724 v 1.33805 c -0.295,0.1875 -1.02715,0.5752 -2.16055,1.13795 a 35.548122,37.652424 0 0 1 -4.01405,1.67565 13.695059,14.50575 0 0 1 -4.2856,0.8128 7.614925,8.065697 0 0 1 -5.4544,-1.8632 7.744792,8.2032515 0 0 1 -2.03065,-5.7398 h -0.4605 a 26.681752,28.261202 0 0 1 -5.53705,5.86485 12.821409,13.580383 0 0 1 -14.98195,-1.13795"
       id="path14" />
    <path
       style="fill:#1d1d1b;stroke-width:1.21505"
       inkscape:connector-curvature="0"
       class="cls-1"
       d="m 236.56924,158.73664 v -32.63795 q -2.5265,-4.3892 -8.83095,-4.3892 a 9.2677765,9.816391 0 0 0 -7.6976,4.43925 q -3.05775,4.43925 -3.05775,13.75545 a 30.695821,32.512887 0 0 0 1.5702,10.5917 17.508424,18.544851 0 0 0 4.55715,7.7781 10.117815,10.716748 0 0 0 7.08365,2.91365 11.487321,12.167323 0 0 0 6.3753,-2.451 m 11.35745,-64.3255 v 67.3767 l 5.6787,0.7628 v 1.4006 l -15.66665,3.00115 -0.9917,-6.25245 q -6.04475,6.5901 -12.9867,6.5901 a 16.870896,17.869583 0 0 1 -9.6928,-3.0012 18.464717,19.557752 0 0 1 -6.44615,-8.1157 24.662912,26.122854 0 0 1 -2.25495,-11.25445 23.34063,24.722299 0 0 1 3.60085,-13.6054 25.253216,26.748102 0 0 1 9.5039,-9.3037 26.11506,27.660964 0 0 1 12.47905,-3.3388 23.128121,24.49721 0 0 1 5.4072,0.8628 v -17.1943 l -6.942,-2.10085 v -1.13795 z"
       id="path16" />
    <path
       style="fill:#1d1d1b;stroke-width:1.21505"
       inkscape:connector-curvature="0"
       class="cls-1"
       d="m 262.43634,106.96614 a 6.36348,6.7401715 0 0 1 0,-9.7789 6.3162555,6.6901515 0 0 1 4.5926,-2.1008 6.4579285,6.840211 0 0 1 4.6398,2.1008 6.3162555,6.6901515 0 0 1 0,9.7789 6.4815405,6.865221 0 0 1 -4.72245,2.0508 6.387092,6.7651815 0 0 1 -4.59255,-2.0508 m -0.732,55.7346 v -35.45155 l -5.50165,-2.9512 v -1.15045 l 16.94175,-4.8644 v 44.4176 l 5.90305,1.62565 v 1.43805 h -23.0219 v -1.4881 z"
       id="path18" />
    <polygon
       style="fill:#1d1d1b"
       class="cls-1"
       points="281.92,41.14 276.04,39.69 276.04,38.54 288.86,38.54 288.86,39.69 285.05,40.83 271.31,76.63 267.26,76.63 253.75,40.91 249.78,39.69 249.78,38.54 269.17,38.54 269.17,39.5 263.98,40.78 271.91,64.04 272.83,67.01 272.98,67.01 273.75,64.87 "
       id="polygon20"
       transform="matrix(1.1806085,0,0,1.2504956,-18.442208,71.41454)" />
    <path
       style="fill:#1d1d1b;stroke-width:1.21505"
       inkscape:connector-curvature="0"
       class="cls-1"
       d="m 345.56299,156.83589 v -15.3936 l -5.90305,2.10085 a 10.625477,11.254461 0 0 0 -5.3127,3.43885 9.315001,9.8664105 0 0 0 0.0945,11.25445 5.9030425,6.252478 0 0 0 4.7224,2.1884 7.9691075,8.4408455 0 0 0 6.3989,-3.62645 m -20.637,7.15285 a 10.200458,10.804283 0 0 1 -3.35295,-8.45335 9.987948,10.579193 0 0 1 3.6481,-8.69095 q 3.64805,-3.15125 11.58175,-5.2521 l 8.7483,-2.2884 v -6.39005 q 0,-5.91485 -2.07785,-9.1161 a 6.528765,6.915241 0 0 0 -5.67875,-3.20125 7.7211795,8.1782415 0 0 0 -4.59255,1.42555 l -0.354,12.21735 a 14.450648,15.306067 0 0 1 -4.95855,0.86285 5.6315025,5.9648645 0 0 1 -3.7307,-1.2505 4.1085176,4.3517249 0 0 1 -1.40495,-3.5139 q 0,-2.66355 2.78625,-5.4897 a 22.041961,23.346754 0 0 1 7.4024,-4.6268 26.988711,28.586331 0 0 1 9.7282,-1.86325 q 7.20175,0 10.73175,3.48885 3.53,3.4889 3.54185,11.0294 v 25.89775 a 3.2938977,3.4888829 0 0 0 0.6375,2.501 3.6716925,3.8890415 0 0 0 2.43205,0.62525 h 3.8724 v 1.33805 c -0.307,0.1875 -1.0153,0.5752 -2.1605,1.13795 a 35.52451,37.627414 0 0 1 -4.0141,1.67565 13.636028,14.443225 0 0 1 -4.2738,0.8128 7.614925,8.065697 0 0 1 -5.4544,-1.8632 7.744792,8.2032515 0 0 1 -2.03065,-5.7773 h -0.4485 a 26.740783,28.323727 0 0 1 -5.53705,5.8648 12.833215,13.592888 0 0 1 -15.04095,-1.1004"
       id="path22" />
    <path
       style="fill:#1d1d1b;stroke-width:1.21505"
       inkscape:connector-curvature="0"
       class="cls-1"
       d="m 370.87524,162.85079 v -34.93885 l -5.50165,-3.62645 v -0.85035 l 15.40695,-5.25205 h 0.4485 l 0.4485,12.50495 h 0.366 l 1.1806,-2.501 a 27.626239,29.261598 0 0 1 5.1829,-7.8781 7.9573015,8.4283405 0 0 1 5.4544,-2.15085 6.2926435,6.665142 0 0 1 4.2738,1.6256 5.2182895,5.527191 0 0 1 1.7591,4.38925 q 0,5.63975 -6.12735,7.0653 l -5.5961,-4.8019 a 8.2642595,8.7534695 0 0 0 -3.1522,2.62605 13.447131,14.243146 0 0 0 -2.7036,4.87695 v 28.91145 l 7.47325,1.62565 v 1.2505 h -24.415 v -1.2505 z"
       id="path24" />
    <path
       style="fill:#1d1d1b;stroke-width:1.21505"
       inkscape:connector-curvature="0"
       class="cls-1"
       d="m 407.75744,106.96614 a 6.375286,6.7526765 0 0 1 0,-9.7789 6.3044495,6.677647 0 0 1 4.5926,-2.1008 6.4579285,6.840211 0 0 1 4.6398,2.1008 6.3162555,6.6901515 0 0 1 0,9.7789 6.4933465,6.877726 0 0 1 -4.72245,2.0508 6.375286,6.7526765 0 0 1 -4.50995,-2.0508 m -0.85,55.7346 v -35.45155 l -5.50165,-2.9512 v -1.15045 l 16.97715,-4.87695 v 44.43015 l 5.90305,1.62565 v 1.43805 h -23.0573 v -1.4881 z"
       id="path26" />
    <path
       style="fill:#1d1d1b;stroke-width:1.21505"
       inkscape:connector-curvature="0"
       class="cls-1"
       d="m 449.43294,164.80154 a 15.50139,16.419008 0 0 1 -8.20525,2.4385 12.420002,13.155214 0 0 1 -9.3268,-3.7515 q -3.471,-3.7515 -3.471,-11.1169 v -26.64805 l -5.58425,-2.57605 v -1.2505 l 16.94175,-3.0512 v 31.87515 q 0,9.74135 8.0163,9.72885 a 12.78599,13.542868 0 0 0 8.01635,-3.15125 v -31.7626 l -6.12735,-2.38845 v -1.33805 l 17.56745,-3.1512 v 42.51685 l 6.0329,1.71315 v 1.42555 l -16.2924,2.63855 -0.9917,-7.8281 a 29.621468,31.374936 0 0 1 -6.576,5.67725"
       id="path28" />
    <path
       style="fill:#1d1d1b;stroke-width:1.21505"
       inkscape:connector-curvature="0"
       class="cls-1"
       d="m 476.52789,164.08879 -0.54305,-14.6058 h 1.71185 l 5.6197,13.21775 a 9.444868,10.003965 0 0 0 2.75085,1.95075 8.8191455,9.3412025 0 0 0 3.7425,0.81285 7.792016,8.2532715 0 0 0 6.0329,-2.501 9.185134,9.728856 0 0 0 2.16055,-6.86525 6.540571,6.927746 0 0 0 -1.4876,-4.6268 11.558157,12.242353 0 0 0 -4.81685,-3.1888 l -5.90305,-2.38845 q -9.18515,-3.6264 -9.18515,-13.08015 a 11.947758,12.655016 0 0 1 2.3612,-7.67805 15.418747,16.331473 0 0 1 6.5288,-5.2896 23.61217,25.009913 0 0 1 9.44485,-1.91325 27.496372,29.124044 0 0 1 11.71165,3.0512 l -0.0945,12.98015 h -1.5348 l -5.18285,-11.5796 a 9.444868,10.003965 0 0 0 -6.03295,-2.38845 6.4815405,6.865221 0 0 0 -5.1356,2.2884 9.161522,9.703846 0 0 0 -1.889,6.59015 4.9113314,5.202062 0 0 0 1.5702,4.1016 14.3562,15.206027 0 0 0 5.0058,3.15125 l 4.7224,2.0008 a 22.041961,23.346754 0 0 1 8.01635,5.20205 10.200458,10.804283 0 0 1 2.43205,7.5905 13.092949,13.867997 0 0 1 -2.60915,8.4909 17.13063,18.144692 0 0 1 -7.08365,5.77725 23.742037,25.147468 0 0 1 -9.64555,2.05085 32.266031,34.176046 0 0 1 -12.7978,-3.15125"
       id="path30" />
    <path
       style="fill:#1d1d1b;stroke-width:1.21505"
       inkscape:connector-curvature="0"
       class="cls-1"
       d="M 36.031092,80.25554 Z"
       id="path32" />
    <path
       style="fill:#1d1d1b;stroke-width:1.21505"
       inkscape:connector-curvature="0"
       class="cls-1"
       d="M 36.031092,80.16799 Z"
       id="path34" />
    <path
       style="fill:#1d1d1b;stroke-width:1.21505"
       inkscape:connector-curvature="0"
       class="cls-1"
       d="M 36.031092,80.68069 Z"
       id="path36" />
    <path
       style="fill:#1d1d1b;stroke-width:1.21505"
       inkscape:connector-curvature="0"
       class="cls-1"
       d="M 36.031092,80.16799 Z"
       id="path38" />
    <path
       style="fill:#1d1d1b;stroke-width:1.21505"
       inkscape:connector-curvature="0"
       class="cls-1"
       d="m 63.680942,160.73744 c -5.1593,11.0544 -14.1673,18.51985 -24.4032,19.03255 a 107.77775,114.15775 0 0 0 0.295,-12.70505 c 0,-0.15 0,-0.3125 0,-0.4625 0,-0.475 0.1655,-0.5002 0.5549,-0.63775 l 1.47575,-0.4875 a 18.60639,19.707812 0 0 0 11.0269,-9.2912 c 2.1841,-4.2892 2.9515,-9.8914 0,-13.6804 a 9.8226625,10.404124 0 0 0 -6.517,-3.56395 c -1.3577,-0.125 -3.97865,0 -4.45085,1.58815 -0.4015,1.41305 0.56665,2.2259 1.5466,2.8011 1.68825,0.9879 2.70355,1.83825 2.7154,3.86405 a 7.225324,7.6530335 0 0 1 -2.72725,5.68975 6.5877955,6.9777655 0 0 1 -2.03065,1.2505 c -0.73195,0.2625 -1.582,0.3875 -1.582,-0.475 v -16.28145 c 0,-3.3138 0.5549,-4.38925 2.0897,-7.21535 2.7154,-5.002 6.17455,-11.5546 8.1344,-16.3315 a 27.378311,28.998994 0 0 0 2.3612,-11.0919 c 9.6692,6.84025 16.1625,20.47065 16.1625,36.20185 0,0.7128 0,1.4131 0,2.10085 v 0 a 6.7058565,7.1028155 0 0 1 3.4238,1.0129 c 0,-0.2125 0,-0.4125 0,-0.62525 q 0,-1.2505 0,-2.501 c 0,-18.1822 -8.19345,-33.8259 -19.9641,-40.79115 a 27.319281,28.93647 0 0 0 -2.7036,-8.5159 c -1.4167,-3.20125 -5.57245,-9.0911 -8.29965,-11.30445 a 3.0223578,3.2012689 0 0 0 -3.74255,-0.325 2.5383083,2.6885657 0 0 0 -1.0153,2.17585 c 0,0.225 0,6.42755 0,14.25565 -17.6029,1.4006 -31.5459,20.75825 -31.5459,44.51765 0,22.1338 12.1485,40.51605 28.0867,44.04245 q -0.248,0.83785 -0.496,1.62565 c -1.2987,4.07665 -4.58075,12.96765 -9.94075,12.99265 a 1.8535554,1.9632782 0 0 1 -2.1369,-1.87575 2.361217,2.5009913 0 0 1 0.5195,-1.5256 4.2265785,4.4767745 0 0 1 3.5418,-1.5256 2.9751334,3.1512491 0 0 0 2.3612,-0.45 1.3576998,1.43807 0 0 0 0,-2.1759 6.930172,7.3404095 0 0 0 -4.01405,-1.0879 c -4.95855,0 -10.9088,4.0016 -10.96785,9.8164 -0.071,6.8402 6.12735,9.8414 11.56995,9.81635 6.7413,0 11.29845,-4.3767 13.3527,-10.9668 v 0 a 65.92518,69.827675 0 0 0 2.43205,-12.98015 l 0.118,-1.05045 c 11.8061,-0.3375 22.0538,-8.6659 27.8742,-21.05835 a 7.3079665,7.740568 0 0 1 -3.105,-1.8007 z M 39.584692,90.23449 a 0.5430799,0.575228 0 0 1 0.496,-0.67525 c 0.61395,0 1.1806,1.2505 2.18415,3.36385 q 0.425,0.91285 0.7674,1.8007 a 27.342893,28.96148 0 0 0 -3.4474,-0.425 z m 0,7.86565 a 23.966353,25.385062 0 0 1 4.72245,0.8003 25.560174,27.073231 0 0 1 -1.7355,17.10675 37.012077,39.203039 0 0 1 -1.84175,4.08915 0.6257225,0.6627627 0 0 1 -0.732,0.5002 0.554886,0.58773295 0 0 1 -0.413,-0.57525 z m -3.5418,42.9545 v 12.8926 a 0.3777947,0.4001586 0 0 1 -0.2125,0.375 0.3896008,0.41266355 0 0 1 -0.51945,-0.1875 10.306712,10.916827 0 0 1 -0.83825,-2.501 20.070345,21.258426 0 0 1 0.9209,-11.44205 0.3305704,0.3501388 0 0 1 0.3425,-0.225 0.57849815,0.61274285 0 0 1 0.2835,0.6753 c 0.01,0.1375 0.01,0.275 0.01,0.4125 z m 0,-15.06845 c 0,3.0637 -1.84175,5.6147 -3.6127,7.8906 -3.9432,5.002 -6.74125,9.7664 -7.2489,16.1439 -0.5195,6.5651 1.64105,13.23025 8.07535,15.50615 a 17.413976,18.444811 0 0 0 2.07785,0.5502 c 0.3305,0 0.732,0.075 0.6966,0.55025 0,0.125 0,0.2625 -0.071,0.45 -0.5903,3.81405 -1.39315,8.16575 -2.36125,12.25485 -14.52145,-3.02615 -25.59555,-19.9704 -25.59555,-40.391 0,-21.59605 12.36095,-39.27805 28.02765,-40.76615 0,11.1419 0,24.03455 0,27.81105 z"
       id="path40" />
    <path
       style="fill:#1d1d1b;stroke-width:1.21505"
       inkscape:connector-curvature="0"
       class="cls-1"
       d="M 36.031092,80.50564 Z"
       id="path42" />
    <path
       style="fill:#1d1d1b;stroke-width:1.21505"
       inkscape:connector-curvature="0"
       class="cls-1"
       d="M 36.031092,80.31809 Z"
       id="path44" />
  </g>
</svg>
